<?xml version="1.0" standalone="no"?>
<!DOCTYPE svg PUBLIC "-//W3C//DTD SVG 20010904//EN"
 "http://www.w3.org/TR/2001/REC-SVG-20010904/DTD/svg10.dtd">
<svg version="1.0" xmlns="http://www.w3.org/2000/svg"
 width="740.000000pt" height="740.000000pt" viewBox="0 0 740.000000 740.000000"
 preserveAspectRatio="xMidYMid meet">

<g transform="translate(0.000000,740.000000) scale(0.100000,-0.100000)"
fill="#000000" stroke="none">
<path d="M3540 5769 c-481 -59 -892 -352 -1101 -784 -99 -205 -128 -337 -154
-705 -8 -118 -28 -395 -45 -615 -16 -220 -41 -555 -55 -745 -14 -190 -28 -371
-31 -402 l-6 -58 1551 0 c853 0 1551 3 1551 7 0 8 -33 447 -55 733 -8 107 -33
445 -55 750 -45 615 -56 709 -105 857 -164 493 -564 846 -1070 944 -117 23
-318 32 -425 18z m135 -269 c3 -5 -2 -10 -12 -10 -10 0 -62 -15 -115 -34 -235
-81 -413 -238 -523 -461 -83 -167 -80 -146 -153 -1150 l-37 -500 -158 -3
c-102 -2 -157 1 -157 8 0 57 103 1370 111 1414 15 85 59 202 109 292 61 108
224 272 333 333 87 49 182 86 272 106 72 16 321 20 330 5z"/>
<path d="M961 5504 c-26 -33 -27 -75 -3 -102 9 -11 143 -79 297 -150 154 -72
333 -155 397 -186 209 -98 214 -100 248 -86 54 22 68 90 28 127 -37 34 -879
423 -915 423 -22 0 -38 -8 -52 -26z"/>
<path d="M5918 5326 c-234 -110 -436 -210 -447 -220 -27 -25 -28 -79 -1 -106
43 -43 45 -43 512 175 244 114 451 216 461 227 23 27 22 69 -4 102 -37 48 -60
40 -521 -178z"/>
<path d="M459 4490 c-9 -5 -22 -23 -29 -40 -15 -35 0 -84 31 -100 11 -6 275
-10 679 -10 l661 0 24 25 c33 32 33 78 0 110 l-24 25 -663 0 c-398 0 -669 -4
-679 -10z"/>
<path d="M5575 4475 c-16 -15 -25 -36 -25 -55 0 -19 9 -40 25 -55 l24 -25 661
0 c404 0 668 4 679 10 31 16 46 65 31 100 -7 17 -21 35 -31 40 -11 6 -275 10
-679 10 l-661 0 -24 -25z"/>
<path d="M1769 3847 c-46 -24 -205 -106 -354 -182 -392 -200 -439 -225 -452
-243 -19 -24 -16 -86 5 -105 43 -39 62 -34 244 61 95 49 290 149 433 222 143
73 270 142 283 153 46 42 11 137 -51 137 -14 0 -62 -20 -108 -43z"/>
<path d="M5476 3867 c-29 -30 -34 -71 -11 -104 8 -11 213 -123 456 -248 465
-239 466 -239 512 -198 20 19 23 81 5 106 -7 8 -83 52 -168 95 -85 44 -279
144 -430 222 -151 78 -289 144 -307 147 -25 4 -37 0 -57 -20z"/>
<path d="M2115 2314 c-11 -2 -45 -9 -75 -15 -30 -6 -98 -31 -150 -56 -80 -39
-108 -59 -181 -132 -71 -71 -94 -102 -133 -181 -44 -91 -76 -207 -76 -281 l0
-29 2201 0 2202 0 -7 71 c-8 84 -45 202 -88 279 -18 30 -70 94 -117 141 -72
72 -101 94 -181 132 -168 82 -51 77 -1812 76 -860 -1 -1572 -3 -1583 -5z m298
-124 c-40 -11 -94 -32 -120 -47 -114 -66 -206 -205 -219 -330 l-7 -63 -113 0
c-127 0 -120 -6 -104 81 31 164 159 309 318 360 43 13 88 18 187 18 l130 0
-72 -19z"/>
</g>
</svg>
