<?xml version="1.0" standalone="no"?>
<!DOCTYPE svg PUBLIC "-//W3C//DTD SVG 20010904//EN"
 "http://www.w3.org/TR/2001/REC-SVG-20010904/DTD/svg10.dtd">
<svg version="1.0" xmlns="http://www.w3.org/2000/svg"
 width="460.000000pt" height="92.000000pt" viewBox="0 0 460.000000 92.000000"
 preserveAspectRatio="xMidYMid meet">

<g transform="translate(0.000000,92.000000) scale(0.100000,-0.100000)"
fill="#000000" stroke="none">
<path d="M3600 869 c1 -24 1 -50 1 -56 -1 -17 -31 -17 -31 -1 0 9 -3 9 -12 0
-16 -16 -68 -16 -68 0 0 9 -3 9 -12 0 -7 -7 -25 -12 -40 -12 -24 0 -28 4 -28
28 0 40 -10 45 -32 16 -16 -20 -18 -28 -8 -39 7 -8 16 -13 20 -10 5 3 11 1 14
-4 7 -11 226 -11 249 1 9 5 17 17 17 27 0 20 -25 35 -41 25 -5 -3 -9 8 -9 25
0 16 -5 33 -11 37 -7 4 -10 -8 -9 -37z m-210 -49 c0 -5 -5 -10 -11 -10 -5 0
-7 5 -4 10 3 6 8 10 11 10 2 0 4 -4 4 -10z m270 1 c0 -11 -31 -24 -39 -16 -3
3 1 10 9 15 19 12 30 12 30 1z"/>
<path d="M508 877 c-2 -12 -9 -21 -16 -19 -8 1 -12 -13 -12 -43 l0 -45 -55 0
c-30 0 -55 -4 -55 -10 0 -5 5 -10 10 -10 6 0 10 -16 10 -35 0 -31 -3 -35 -25
-35 -20 0 -25 -5 -25 -24 0 -18 -6 -26 -22 -28 -41 -6 -67 3 -70 26 -2 16 -11
22 -40 24 l-38 3 0 -235 0 -235 56 -7 c90 -11 211 2 291 30 77 27 167 33 266
17 36 -6 47 -5 47 6 0 10 -21 13 -90 13 l-90 0 0 118 c0 72 4 122 11 129 8 8
8 17 0 31 -33 63 9 166 82 201 24 12 53 21 65 21 14 0 22 6 22 18 0 19 -20 54
-20 35 0 -6 -15 -15 -32 -18 -138 -29 -339 -231 -478 -478 -18 -32 -34 -56
-36 -54 -2 2 12 40 31 84 106 244 250 426 390 493 37 18 64 35 60 38 -3 3 -57
7 -120 8 -110 2 -114 1 -117 -19z m32 -92 c0 -18 -5 -25 -19 -25 -11 0 -23 5
-26 10 -11 18 3 40 25 40 15 0 20 -7 20 -25z m-50 -70 c0 -8 -9 -15 -20 -15
-11 0 -20 7 -20 15 0 8 9 15 20 15 11 0 20 -7 20 -15z m-40 -45 c0 -5 -7 -10
-15 -10 -8 0 -15 5 -15 10 0 6 7 10 15 10 8 0 15 -4 15 -10z m-50 -30 c0 -5
-4 -10 -10 -10 -5 0 -10 5 -10 10 0 6 5 10 10 10 6 0 10 -4 10 -10z"/>
<path d="M1198 850 c-2 -45 -7 -55 -22 -58 -11 -3 -26 4 -33 14 -11 15 -13 15
-13 2 0 -22 25 -40 52 -36 20 3 24 10 28 56 3 29 2 58 -2 65 -4 6 -8 -13 -10
-43z"/>
<path d="M1300 860 l-5 -45 -23 38 c-13 20 -28 37 -33 37 -4 0 3 -17 17 -37
23 -35 24 -38 8 -50 -24 -17 -8 -30 17 -15 15 10 24 10 34 2 14 -11 119 -9
131 3 10 10 -7 47 -21 47 -8 0 -19 -9 -25 -20 -8 -15 -21 -20 -50 -20 l-39 0
-3 53 -4 52 -4 -45z m137 -56 c-9 -9 -28 6 -21 18 4 6 10 6 17 -1 6 -6 8 -13
4 -17z"/>
<path d="M2058 893 c7 -3 16 -2 19 1 4 3 -2 6 -13 5 -11 0 -14 -3 -6 -6z"/>
<path d="M2545 853 c0 -47 -1 -48 -32 -51 -22 -2 -33 1 -33 9 0 10 -3 10 -12
1 -16 -16 -115 -16 -121 1 -4 10 -6 10 -6 0 -1 -8 -15 -13 -36 -13 -30 0 -35
3 -35 23 0 13 -3 27 -7 30 -10 11 -33 -13 -33 -34 0 -15 -7 -19 -35 -19 -21 0
-35 5 -35 12 0 9 -3 9 -12 0 -7 -7 -25 -12 -40 -12 -26 0 -28 3 -28 38 l-1 37
-25 -29 c-19 -22 -22 -31 -13 -42 6 -8 15 -11 21 -8 5 3 14 1 21 -4 17 -13
668 -13 685 0 15 13 16 94 1 104 -7 4 -10 -6 -9 -32 2 -22 2 -45 1 -51 -1 -17
-71 -17 -71 -1 0 9 -3 9 -12 0 -19 -19 -56 -14 -63 8 -6 19 -16 24 -42 21 -8
-1 -13 10 -13 29 0 16 -3 30 -7 30 -5 0 -8 -21 -8 -47z m-289 -40 c-10 -10
-19 5 -10 18 6 11 8 11 12 0 2 -7 1 -15 -2 -18z m-186 7 c0 -5 -4 -10 -10 -10
-5 0 -10 5 -10 10 0 6 5 10 10 10 6 0 10 -4 10 -10z m528 -2 c-3 -7 -13 -15
-24 -17 -16 -3 -17 -1 -5 13 16 19 34 21 29 4z"/>
<path d="M2803 845 c0 -33 2 -45 4 -27 2 18 2 45 0 60 -2 15 -4 0 -4 -33z"/>
<path d="M3050 852 c0 -50 -1 -52 -28 -52 -16 0 -32 8 -40 20 -7 11 -17 20
-22 20 -15 0 -12 -47 3 -54 9 -3 7 -9 -6 -19 -13 -11 -15 -17 -6 -23 7 -4 20
2 30 15 18 22 26 23 166 24 l148 2 5 48 c3 26 2 53 -2 60 -4 7 -8 -11 -8 -40
0 -40 -4 -53 -15 -53 -11 0 -15 12 -15 50 0 28 -4 50 -8 50 -5 0 -8 -21 -8
-47 l1 -48 -39 -3 c-33 -3 -38 -1 -28 11 15 17 6 27 -25 27 -20 0 -23 -4 -18
-21 6 -18 3 -20 -31 -17 -37 3 -38 4 -41 47 -5 63 -13 64 -13 3z m120 -26 c0
-3 -4 -8 -10 -11 -5 -3 -10 -1 -10 4 0 6 5 11 10 11 6 0 10 -2 10 -4z m-190
-16 c0 -5 -4 -10 -10 -10 -5 0 -10 5 -10 10 0 6 5 10 10 10 6 0 10 -4 10 -10z"/>
<path d="M3380 890 c0 -5 7 -7 15 -4 8 4 15 8 15 10 0 2 -7 4 -15 4 -8 0 -15
-4 -15 -10z"/>
<path d="M3800 852 c0 -50 -1 -52 -28 -52 -16 0 -32 8 -40 20 -7 11 -17 20
-22 20 -15 0 -12 -47 3 -54 9 -3 7 -9 -6 -19 -13 -11 -15 -17 -6 -23 7 -4 19
2 30 14 10 13 29 22 43 22 31 0 44 27 40 78 -4 54 -14 50 -14 -6z m-70 -42 c0
-5 -4 -10 -10 -10 -5 0 -10 5 -10 10 0 6 5 10 10 10 6 0 10 -4 10 -10z"/>
<path d="M3925 890 c4 -6 11 -8 16 -5 14 9 11 15 -7 15 -8 0 -12 -5 -9 -10z"/>
<path d="M4430 864 c3 -61 2 -64 -30 -64 -19 0 -33 7 -40 20 -6 11 -15 20 -20
20 -5 0 -12 -9 -15 -20 -5 -15 -15 -20 -41 -20 -29 0 -34 3 -34 24 0 14 -4 27
-9 31 -6 3 -9 -7 -8 -22 1 -21 -2 -28 -15 -27 -9 1 -14 -4 -12 -10 5 -14 211
-16 232 -3 15 10 16 93 1 103 -7 4 -10 -7 -9 -32z m-80 -54 c0 -5 -4 -10 -10
-10 -5 0 -10 5 -10 10 0 6 5 10 10 10 6 0 10 -4 10 -10z"/>
<path d="M4473 845 c0 -33 2 -45 4 -27 2 18 2 45 0 60 -2 15 -4 0 -4 -33z"/>
<path d="M440 880 c-13 -8 -12 -10 3 -10 9 0 17 5 17 10 0 12 -1 12 -20 0z"/>
<path d="M2234 883 c10 -11 36 -12 36 -2 0 5 -10 9 -22 9 -12 0 -18 -3 -14 -7z"/>
<path d="M3837 843 c8 -65 13 -67 13 -5 0 29 -4 52 -10 52 -6 0 -7 -19 -3 -47z"/>
<path d="M350 856 c0 -19 -6 -26 -27 -29 -26 -4 -26 -4 5 -6 29 -1 32 2 32 29
0 17 -2 30 -5 30 -3 0 -5 -11 -5 -24z"/>
<path d="M3560 860 c0 -5 5 -10 11 -10 5 0 7 5 4 10 -3 6 -8 10 -11 10 -2 0
-4 -4 -4 -10z"/>
<path d="M3927 852 c-21 -23 -19 -57 3 -58 8 0 22 -4 31 -8 9 -4 48 -6 85 -3
65 3 69 5 71 28 2 22 2 22 -6 4 -5 -11 -10 -15 -10 -8 -1 12 -25 12 -37 0 -4
-4 -31 -7 -60 -7 l-53 0 -3 36 c-3 36 -3 36 -21 16z m13 -32 c0 -5 -4 -10 -10
-10 -5 0 -10 5 -10 10 0 6 5 10 10 10 6 0 10 -4 10 -10z"/>
<path d="M2678 853 c7 -3 16 -2 19 1 4 3 -2 6 -13 5 -11 0 -14 -3 -6 -6z"/>
<path d="M450 831 c0 -15 -8 -21 -32 -24 -32 -4 -32 -4 5 -5 33 -2 37 0 37 23
0 14 -2 25 -5 25 -3 0 -5 -9 -5 -19z"/>
<path d="M1816 825 c6 -24 5 -25 -45 -25 -33 0 -51 4 -51 12 0 9 -3 9 -12 0
-7 -7 -39 -12 -72 -12 -53 -1 -59 -2 -44 -14 22 -16 13 -26 -23 -26 -29 0 -42
20 -32 47 4 11 3 14 -5 9 -31 -19 4 -76 46 -76 12 0 32 10 43 21 19 19 33 22
110 21 97 -1 120 10 99 47 -15 28 -22 26 -14 -4z"/>
<path d="M2875 808 c-4 -24 -2 -54 4 -68 9 -21 10 -19 5 18 -5 38 -4 42 15 42
23 0 28 19 9 38 -20 20 -26 14 -33 -30z"/>
<path d="M4168 810 c3 -21 0 -32 -12 -36 -20 -8 -21 -24 -1 -24 21 0 37 35 29
65 -9 35 -21 31 -16 -5z"/>
<path d="M1958 823 c7 -3 16 -2 19 1 4 3 -2 6 -13 5 -11 0 -14 -3 -6 -6z"/>
<path d="M250 751 c0 -15 -8 -21 -32 -24 -32 -4 -32 -4 5 -5 33 -2 37 0 37 23
0 14 -2 25 -5 25 -3 0 -5 -9 -5 -19z"/>
<path d="M298 763 c7 -3 16 -2 19 1 4 3 -2 6 -13 5 -11 0 -14 -3 -6 -6z"/>
<path d="M1815 750 c3 -5 8 -10 11 -10 2 0 4 5 4 10 0 6 -5 10 -11 10 -5 0 -7
-4 -4 -10z"/>
<path d="M2140 750 c0 -5 7 -10 15 -10 8 0 15 5 15 10 0 6 -7 10 -15 10 -8 0
-15 -4 -15 -10z"/>
<path d="M2330 750 c0 -5 7 -10 15 -10 8 0 15 5 15 10 0 6 -7 10 -15 10 -8 0
-15 -4 -15 -10z"/>
<path d="M2465 750 c3 -5 8 -10 11 -10 2 0 4 5 4 10 0 6 -5 10 -11 10 -5 0 -7
-4 -4 -10z"/>
<path d="M3464 753 c10 -11 36 -12 36 -2 0 5 -10 9 -22 9 -12 0 -18 -3 -14 -7z"/>
<path d="M1556 721 c9 -9 34 -9 34 -1 0 5 -9 8 -20 7 -10 -1 -17 -3 -14 -6z"/>
<path d="M310 666 c0 -8 -8 -17 -17 -19 -14 -4 -12 -5 5 -6 16 -1 22 5 22 19
0 11 -2 20 -5 20 -3 0 -5 -6 -5 -14z"/>
<path d="M983 580 c-6 -25 -10 -47 -8 -49 8 -7 26 52 23 73 -2 13 -7 4 -15
-24z"/>
<path d="M1241 518 c-1 -19 -6 -28 -18 -28 -17 -1 -17 -2 -1 -13 9 -7 18 -24
21 -37 4 -25 4 -25 6 2 0 14 7 29 14 31 9 4 9 8 1 14 -7 4 -14 19 -17 33 -4
25 -4 25 -6 -2z"/>
<path d="M1312 527 c-17 -10 -20 -15 -10 -25 9 -9 9 -15 0 -24 -18 -18 -15
-26 18 -43 17 -9 30 -11 30 -6 0 5 -6 11 -12 13 -18 6 -19 68 -2 75 15 5 20
23 7 23 -5 -1 -18 -6 -31 -13z"/>
<path d="M1360 486 c0 -30 5 -58 10 -61 6 -4 10 15 10 49 0 30 -4 58 -10 61
-6 4 -10 -15 -10 -49z"/>
<path d="M1392 483 c3 -57 3 -58 36 -61 18 -2 32 1 32 7 0 6 -11 11 -25 11
-22 0 -25 4 -25 40 0 36 3 40 25 40 14 0 25 5 25 10 0 6 -16 10 -35 10 l-36 0
3 -57z"/>
<path d="M1481 480 c1 -63 1 -64 14 -35 12 26 14 27 15 8 0 -12 5 -25 10 -28
6 -4 10 15 10 49 0 56 -15 85 -23 44 l-4 -23 -11 25 c-9 21 -11 16 -11 -40z"/>
<path d="M1630 516 c0 -13 -6 -27 -12 -30 -10 -5 -10 -7 0 -12 6 -3 12 -17 12
-30 0 -13 5 -24 10 -24 6 0 10 11 10 25 0 14 5 25 12 25 9 0 9 3 0 12 -7 7
-12 20 -12 29 0 10 -4 21 -10 24 -6 3 -10 -5 -10 -19z"/>
<path d="M1737 483 c5 -78 13 -80 13 -5 0 34 -4 62 -8 62 -5 0 -7 -26 -5 -57z"/>
<path d="M1820 480 l0 -60 35 0 c19 0 35 5 35 10 0 6 -13 10 -30 10 -28 0 -30
2 -30 40 0 38 2 40 31 40 17 0 28 4 24 10 -3 6 -19 10 -36 10 -29 0 -29 0 -29
-60z"/>
<path d="M1907 526 c-6 -16 11 -36 30 -36 19 0 16 37 -3 44 -21 8 -21 8 -27
-8z m33 -10 c0 -3 -4 -8 -10 -11 -5 -3 -10 -1 -10 4 0 6 5 11 10 11 6 0 10 -2
10 -4z"/>
<path d="M1976 525 c-22 -23 -20 -61 5 -86 26 -26 49 -21 68 13 14 25 14 29
-5 55 -26 34 -46 39 -68 18z m62 -36 c3 -29 -20 -54 -43 -45 -18 7 -20 47 -3
64 19 19 43 10 46 -19z"/>
<path d="M2094 525 c3 -8 -1 -20 -8 -27 -8 -8 -10 -19 -5 -28 4 -8 11 -24 15
-35 7 -18 8 -18 12 5 2 14 9 29 16 33 8 6 8 10 -1 14 -7 2 -13 16 -13 29 0 13
-5 24 -11 24 -6 0 -9 -7 -5 -15z"/>
<path d="M2210 486 c0 -30 5 -58 10 -61 6 -4 10 15 10 49 0 30 -4 58 -10 61
-6 4 -10 -15 -10 -49z"/>
<path d="M2331 518 c0 -14 -7 -29 -13 -32 -10 -5 -10 -7 0 -12 6 -3 13 -18 13
-32 1 -21 2 -22 6 -7 3 11 11 25 20 32 13 10 13 12 0 20 -8 4 -17 19 -20 33
l-4 25 -2 -27z"/>
<path d="M2380 480 l0 -60 35 0 c19 0 35 5 35 10 0 6 -11 10 -25 10 -21 0 -25
5 -25 30 0 17 -1 33 -2 38 -2 4 9 8 25 10 39 5 33 22 -8 22 l-35 0 0 -60z"/>
<path d="M2535 516 c-34 -52 21 -121 65 -81 26 23 26 59 0 85 -26 26 -46 25
-65 -4z m63 -27 c3 -29 -20 -54 -43 -45 -18 7 -20 47 -3 64 19 19 43 10 46
-19z"/>
<path d="M2560 486 c0 -8 5 -18 10 -21 6 -3 10 1 10 9 0 8 -4 18 -10 21 -5 3
-10 -1 -10 -9z"/>
<path d="M2644 515 c-33 -51 24 -118 67 -79 25 22 24 59 -1 84 -27 27 -46 25
-66 -5z m64 -26 c3 -29 -20 -54 -43 -45 -18 7 -20 47 -3 64 19 19 43 10 46
-19z"/>
<path d="M2670 486 c0 -8 5 -18 10 -21 6 -3 10 1 10 9 0 8 -4 18 -10 21 -5 3
-10 -1 -10 -9z"/>
<path d="M2803 480 c0 -36 2 -50 4 -32 2 17 2 47 0 65 -2 17 -4 3 -4 -33z"/>
<path d="M2851 529 c-20 -8 -21 -12 -11 -25 10 -11 10 -18 2 -26 -18 -18 -15
-26 21 -43 32 -16 32 -16 10 3 -16 14 -19 22 -11 30 8 8 8 15 -1 26 -10 12 -8
16 8 21 12 3 21 11 21 16 0 11 -8 11 -39 -2z"/>
<path d="M2900 480 c0 -35 2 -61 4 -59 8 7 10 108 3 115 -4 4 -7 -21 -7 -56z"/>
<path d="M3021 518 c-1 -19 -6 -28 -18 -28 -17 -1 -17 -2 -1 -13 9 -7 18 -24
21 -37 4 -25 4 -25 6 2 0 14 7 29 14 31 9 4 9 8 1 14 -7 4 -14 19 -17 33 -4
25 -4 25 -6 -2z"/>
<path d="M3074 526 c-7 -19 3 -36 22 -36 10 0 14 8 12 22 -4 26 -26 36 -34 14z
m22 -23 c-10 -10 -19 5 -10 18 6 11 8 11 12 0 2 -7 1 -15 -2 -18z"/>
<path d="M3133 514 c-15 -23 -15 -29 -2 -52 23 -41 44 -49 68 -28 27 24 27 60
1 86 -27 27 -46 25 -67 -6z m65 -25 c3 -29 -20 -54 -43 -45 -18 7 -20 47 -3
64 19 19 43 10 46 -19z"/>
<path d="M3160 486 c0 -8 5 -18 10 -21 6 -3 10 1 10 9 0 8 -4 18 -10 21 -5 3
-10 -1 -10 -9z"/>
<path d="M3230 486 c0 -30 5 -58 10 -61 6 -4 10 15 10 49 0 30 -4 58 -10 61
-6 4 -10 -15 -10 -49z"/>
<path d="M3284 526 c-15 -12 -16 -17 -7 -27 10 -10 10 -16 -2 -29 -13 -15 -11
-18 23 -33 36 -17 37 -17 15 1 -17 15 -19 22 -10 32 9 10 9 14 0 17 -19 7 -16
21 7 28 22 7 27 25 7 25 -7 0 -22 -6 -33 -14z"/>
<path d="M3352 528 c-18 -18 -14 -73 6 -91 36 -33 72 -14 72 38 0 50 -48 83
-78 53z m63 -28 c8 -26 -11 -60 -35 -60 -23 0 -35 33 -20 60 14 26 47 26 55 0z"/>
<path d="M3372 479 c2 -6 8 -10 13 -10 5 0 11 4 13 10 2 6 -4 11 -13 11 -9 0
-15 -5 -13 -11z"/>
<path d="M3472 527 c-17 -10 -20 -15 -10 -25 9 -9 9 -15 0 -24 -18 -18 -15
-26 18 -43 17 -9 30 -11 30 -6 0 5 -6 11 -12 13 -18 6 -19 68 -2 75 15 5 20
23 7 23 -5 -1 -18 -6 -31 -13z"/>
<path d="M3520 486 c0 -30 5 -58 10 -61 6 -4 10 15 10 49 0 30 -4 58 -10 61
-6 4 -10 -15 -10 -49z"/>
<path d="M3835 528 c-29 -16 -29 -16 -15 -33 10 -13 10 -19 -4 -33 -9 -10 -16
-25 -16 -33 1 -8 11 -3 26 15 18 21 22 32 14 40 -7 7 -5 15 11 27 25 19 13 32
-16 17z"/>
<path d="M3901 518 c-1 -19 -6 -28 -18 -28 -17 -1 -17 -2 -1 -13 9 -7 18 -24
21 -37 4 -24 4 -24 6 3 1 18 6 27 19 27 16 1 16 2 0 13 -9 7 -18 24 -21 37 -4
24 -4 24 -6 -2z"/>
<path d="M4016 483 l2 -58 37 -3 c24 -2 35 0 30 7 -3 6 -17 11 -31 11 -21 0
-24 4 -24 40 0 38 2 40 31 40 17 0 28 4 24 10 -3 6 -21 10 -38 10 l-32 0 1
-57z"/>
<path d="M4112 523 c2 -10 10 -18 18 -18 22 0 18 29 -3 33 -14 3 -18 -1 -15
-15z"/>
<path d="M4160 486 c0 -30 5 -58 10 -61 6 -3 10 3 10 14 0 31 18 34 23 4 2
-16 5 1 5 37 1 61 0 63 -13 40 -10 -18 -14 -20 -15 -8 0 9 -4 20 -10 23 -6 4
-10 -15 -10 -49z"/>
<path d="M4231 480 c0 -63 0 -64 14 -35 l13 30 1 -27 c2 -50 16 -29 18 27 3
57 -10 81 -22 42 l-7 -22 -8 25 c-6 18 -8 8 -9 -40z"/>
<path d="M4341 497 c4 -42 3 -44 -13 -30 -20 18 -38 10 -38 -18 0 -22 32 -39
38 -20 3 9 7 9 18 0 11 -9 14 -7 14 9 0 32 18 36 23 5 2 -16 5 1 5 37 1 61 0
63 -13 40 -10 -18 -14 -20 -15 -8 0 9 -5 20 -11 24 -8 4 -10 -7 -8 -39z m-21
-47 c0 -5 -4 -10 -10 -10 -5 0 -10 5 -10 10 0 6 5 10 10 10 6 0 10 -4 10 -10z"/>
<path d="M984 390 c0 -69 1 -97 3 -62 2 34 2 90 0 125 -2 34 -3 6 -3 -63z"/>
<path d="M4112 461 c-2 -32 14 -49 30 -33 8 8 8 15 -1 26 -7 8 -10 20 -6 26 3
5 0 10 -7 10 -8 0 -15 -13 -16 -29z"/>
<path d="M1684 465 c-9 -24 22 -53 38 -37 9 9 10 17 2 29 -15 24 -33 27 -40 8z
m26 -15 c0 -5 -5 -10 -11 -10 -5 0 -7 5 -4 10 3 6 8 10 11 10 2 0 4 -4 4 -10z"/>
<path d="M1766 464 c-9 -25 19 -53 36 -36 9 9 10 17 2 29 -15 24 -30 27 -38 7z
m34 -8 c0 -3 -4 -8 -10 -11 -5 -3 -10 -1 -10 4 0 6 5 11 10 11 6 0 10 -2 10
-4z"/>
<path d="M2474 466 c-8 -22 3 -49 19 -43 6 2 12 14 12 27 0 27 -22 39 -31 16z
m26 -16 c0 -5 -4 -10 -10 -10 -5 0 -10 5 -10 10 0 6 5 10 10 10 6 0 10 -4 10
-10z"/>
<path d="M2744 465 c-9 -24 22 -53 38 -37 9 9 10 17 2 29 -15 24 -33 27 -40 8z
m26 -15 c0 -5 -5 -10 -11 -10 -5 0 -7 5 -4 10 3 6 8 10 11 10 2 0 4 -4 4 -10z"/>
<path d="M3744 465 c-8 -21 3 -47 19 -43 6 3 13 14 15 25 4 24 -26 40 -34 18z
m26 -15 c0 -5 -4 -10 -10 -10 -5 0 -10 5 -10 10 0 6 5 10 10 10 6 0 10 -4 10
-10z"/>
<path d="M1904 459 c-10 -17 23 -46 37 -32 7 7 9 19 6 27 -7 18 -33 21 -43 5z
m36 -9 c0 -5 -4 -10 -10 -10 -5 0 -10 5 -10 10 0 6 5 10 10 10 6 0 10 -4 10
-10z"/>
<path d="M3072 448 c2 -12 10 -23 18 -23 22 0 19 39 -3 43 -15 3 -18 -1 -15
-20z m28 2 c0 -5 -4 -10 -10 -10 -5 0 -10 5 -10 10 0 6 5 10 10 10 6 0 10 -4
10 -10z"/>
<path d="M3620 450 c0 -5 7 -10 16 -10 8 0 12 5 9 10 -3 6 -10 10 -16 10 -5 0
-9 -4 -9 -10z"/>
<path d="M650 203 c-8 -3 -44 -17 -80 -31 -54 -21 -80 -25 -155 -24 -49 0
-123 8 -163 16 -40 9 -76 16 -78 16 -3 0 -4 -12 -2 -27 l3 -28 328 -3 327 -2
0 45 0 45 -82 -1 c-46 0 -90 -3 -98 -6z"/>
<path d="M1145 155 c0 -44 3 -55 16 -55 12 0 15 7 11 27 -4 21 -2 25 12 20 10
-4 16 -1 16 8 0 9 -6 12 -16 8 -14 -5 -16 -1 -12 20 4 20 1 27 -11 27 -13 0
-16 -11 -16 -55z"/>
<path d="M1206 196 c21 -15 30 -14 19 3 -3 6 -14 11 -23 11 -13 0 -13 -2 4
-14z"/>
<path d="M1380 155 c0 -37 4 -55 13 -55 8 0 11 16 9 55 -5 71 -22 71 -22 0z"/>
<path d="M1536 192 c12 -9 33 -35 48 -57 17 -26 26 -33 26 -22 0 25 -59 97
-79 97 -13 0 -11 -4 5 -18z"/>
<path d="M1597 190 c3 -11 7 -20 8 -20 1 0 5 9 8 20 3 12 0 20 -8 20 -8 0 -11
-8 -8 -20z"/>
<path d="M2040 156 c0 -31 5 -56 10 -56 6 0 10 22 10 49 0 28 -4 53 -10 56 -6
4 -10 -15 -10 -49z"/>
<path d="M2216 158 c0 -31 5 -53 13 -56 9 -3 11 11 9 49 -4 69 -23 75 -22 7z"/>
<path d="M2440 206 c0 -2 7 -6 15 -10 8 -3 15 -1 15 4 0 6 -7 10 -15 10 -8 0
-15 -2 -15 -4z"/>
<path d="M3000 195 c0 -24 31 -95 42 -95 10 0 5 21 -18 77 -15 35 -24 42 -24
18z"/>
<path d="M3240 156 c0 -31 5 -56 10 -56 6 0 10 22 10 49 0 28 -4 53 -10 56 -6
4 -10 -15 -10 -49z"/>
<path d="M3505 199 c-10 -15 3 -25 16 -12 7 7 7 13 1 17 -6 3 -14 1 -17 -5z"/>
<path d="M3790 155 c0 -37 4 -55 13 -55 8 0 12 18 13 55 0 39 -3 55 -13 55 -9
0 -13 -16 -13 -55z"/>
<path d="M3838 203 c6 -2 12 -13 12 -23 0 -10 -6 -21 -12 -23 -10 -4 -10 -6 0
-6 6 -1 12 -10 12 -20 0 -11 -6 -22 -12 -24 -8 -4 -7 -6 3 -6 9 -1 22 6 29 14
11 14 14 13 24 -1 10 -13 12 -11 10 13 -2 37 -2 37 -17 24 -17 -13 -28 -5 -20
15 6 16 -14 44 -31 43 -7 0 -6 -2 2 -6z"/>
<path d="M3915 199 c-10 -15 3 -25 16 -12 7 7 7 13 1 17 -6 3 -14 1 -17 -5z"/>
<path d="M4130 173 c11 -21 20 -43 20 -50 0 -7 5 -13 11 -13 7 0 9 10 5 25
-13 51 -26 75 -41 75 -13 0 -12 -6 5 -37z"/>
<path d="M4190 155 c0 -37 4 -55 13 -55 8 0 12 18 12 55 0 37 -4 55 -12 55 -9
0 -13 -18 -13 -55z"/>
<path d="M4308 155 c2 -30 8 -55 13 -55 13 0 7 102 -6 107 -6 2 -9 -18 -7 -52z"/>
<path d="M4345 155 c0 -30 5 -55 10 -55 6 0 9 23 7 55 -5 71 -17 71 -17 0z"/>
<path d="M4458 155 c2 -30 8 -55 13 -55 13 0 7 102 -6 107 -6 2 -9 -18 -7 -52z"/>
<path d="M2411 193 c-2 -23 12 -43 30 -43 10 0 23 -8 28 -17 6 -10 11 -14 11
-9 0 5 8 2 18 -7 18 -16 18 -15 14 13 -4 28 -22 43 -22 18 0 -6 -7 -4 -18 5
-10 10 -26 17 -35 17 -8 0 -18 8 -20 18 -3 9 -5 12 -6 5z"/>
<path d="M1713 159 c4 -13 7 -32 7 -41 0 -10 3 -18 8 -18 14 0 7 73 -7 78 -10
3 -12 -1 -8 -19z"/>
<path d="M1270 168 c0 -3 12 -19 28 -37 l27 -31 0 30 c0 22 -4 29 -14 25 -7
-3 -20 0 -27 6 -8 6 -14 9 -14 7z"/>
<path d="M1425 156 c-14 -10 -15 -16 -6 -34 6 -12 14 -22 17 -22 3 0 3 4 0 9
-4 5 -2 20 3 33 6 12 10 17 10 11 1 -15 21 -18 21 -4 0 16 -28 20 -45 7z"/>
<path d="M1770 136 c0 -20 5 -36 10 -36 6 0 10 13 10 29 0 17 -4 33 -10 36 -6
4 -10 -8 -10 -29z"/>
<path d="M1839 158 c7 -10 10 -26 6 -40 -7 -22 -6 -22 11 -5 18 16 18 18 -6
40 -13 12 -18 14 -11 5z"/>
<path d="M1880 136 c0 -20 5 -36 10 -36 6 0 10 13 10 29 0 17 -4 33 -10 36 -6
4 -10 -8 -10 -29z"/>
<path d="M1923 135 c1 -19 6 -35 12 -35 7 0 10 12 7 30 -6 43 -20 47 -19 5z"/>
<path d="M1996 144 c4 -37 24 -56 24 -22 0 14 -6 31 -14 37 -11 9 -13 6 -10
-15z"/>
<path d="M2106 155 c4 -8 11 -15 16 -15 6 0 5 6 -2 15 -7 8 -14 15 -16 15 -2
0 -1 -7 2 -15z"/>
<path d="M2286 156 c6 -15 74 -38 74 -25 0 5 -6 9 -12 9 -7 0 -25 6 -40 14
-20 11 -25 11 -22 2z"/>
<path d="M2526 155 c4 -8 11 -15 16 -15 6 0 5 6 -2 15 -7 8 -14 15 -16 15 -2
0 -1 -7 2 -15z"/>
<path d="M2560 136 c0 -20 5 -36 10 -36 6 0 10 13 10 29 0 17 -4 33 -10 36 -6
4 -10 -8 -10 -29z"/>
<path d="M2626 155 c4 -8 11 -15 16 -15 6 0 5 6 -2 15 -7 8 -14 15 -16 15 -2
0 -1 -7 2 -15z"/>
<path d="M2660 136 c0 -41 15 -49 22 -11 3 14 -1 30 -8 36 -11 9 -14 5 -14
-25z"/>
<path d="M2708 135 c2 -19 8 -35 13 -35 5 0 6 12 3 28 -10 41 -21 46 -16 7z"/>
<path d="M2770 168 c0 -3 13 -20 28 -38 27 -30 29 -31 26 -9 -1 13 -3 28 -3
32 -1 5 -6 5 -11 2 -6 -4 -17 -1 -25 5 -8 7 -15 10 -15 8z"/>
<path d="M2836 156 c3 -9 14 -16 23 -16 9 0 27 -7 39 -16 14 -10 22 -11 22 -4
0 7 -9 14 -20 17 -11 3 -20 10 -20 15 0 5 -5 6 -10 3 -6 -4 -18 -1 -26 6 -12
10 -13 9 -8 -5z"/>
<path d="M3070 115 c0 -37 4 -55 13 -55 17 0 17 98 0 105 -10 3 -13 -11 -13
-50z"/>
<path d="M3118 135 c2 -19 8 -32 13 -29 13 8 11 40 -4 52 -10 9 -12 4 -9 -23z"/>
<path d="M3280 136 c0 -20 5 -36 10 -36 6 0 10 13 10 29 0 17 -4 33 -10 36 -6
4 -10 -8 -10 -29z"/>
<path d="M3358 115 c-2 -39 1 -55 10 -55 8 0 12 17 12 49 0 69 -17 73 -22 6z"/>
<path d="M3402 139 c2 -18 8 -34 14 -36 7 -2 9 8 6 27 -6 42 -24 50 -20 9z"/>
<path d="M3442 139 c2 -18 8 -34 14 -36 7 -2 9 8 6 27 -6 42 -24 50 -20 9z"/>
<path d="M3576 157 c2 -7 21 -17 42 -24 44 -14 58 -8 16 7 -16 5 -37 14 -46
20 -13 7 -16 6 -12 -3z"/>
<path d="M3998 135 c2 -19 8 -35 13 -35 14 0 11 46 -4 58 -10 9 -12 4 -9 -23z"/>
<path d="M4040 136 c0 -20 5 -36 10 -36 6 0 10 13 10 29 0 17 -4 33 -10 36 -6
4 -10 -8 -10 -29z"/>
<path d="M4416 144 c4 -37 24 -56 24 -22 0 14 -6 31 -14 37 -11 9 -13 6 -10
-15z"/>
<path d="M1218 129 c-24 -26 -25 -29 -7 -29 11 0 19 7 19 18 1 16 1 16 14 0
19 -25 23 -22 18 12 -5 36 -9 36 -44 -1z"/>
<path d="M1350 130 c0 -18 4 -29 10 -25 6 3 10 15 10 25 0 10 -4 22 -10 25 -6
4 -10 -7 -10 -25z"/>
<path d="M1637 140 c-3 -13 -2 -29 3 -34 14 -14 17 -5 10 29 -6 30 -6 30 -13
5z"/>
<path d="M1672 133 c2 -14 8 -28 14 -30 7 -2 9 8 6 27 -5 37 -25 40 -20 3z"/>
<path d="M1800 141 c0 -10 6 -23 13 -30 11 -8 13 -5 9 19 -5 33 -22 41 -22 11z"/>
<path d="M1965 150 c3 -5 8 -10 11 -10 2 0 4 5 4 10 0 6 -5 10 -11 10 -5 0 -7
-4 -4 -10z"/>
<path d="M2070 141 c0 -10 6 -23 13 -30 11 -8 13 -5 9 19 -5 33 -22 41 -22 11z"/>
<path d="M2170 141 c0 -10 6 -23 13 -30 11 -8 13 -5 9 19 -5 33 -22 41 -22 11z"/>
<path d="M2250 141 c0 -10 6 -23 13 -30 11 -8 13 -5 9 19 -5 33 -22 41 -22 11z"/>
<path d="M2590 141 c0 -10 6 -23 13 -30 11 -8 13 -5 9 19 -5 33 -22 41 -22 11z"/>
<path d="M2740 141 c0 -10 6 -23 13 -30 11 -8 13 -5 9 19 -5 33 -22 41 -22 11z"/>
<path d="M3158 110 c-2 -35 1 -50 10 -50 8 0 12 17 12 50 0 65 -17 65 -22 0z"/>
<path d="M3200 130 c0 -18 4 -29 10 -25 6 3 10 15 10 25 0 10 -4 22 -10 25 -6
4 -10 -7 -10 -25z"/>
<path d="M3310 141 c0 -10 6 -23 13 -30 11 -8 13 -5 9 19 -5 33 -22 41 -22 11z"/>
<path d="M3482 133 c2 -14 8 -28 14 -30 7 -2 9 8 6 27 -5 37 -25 40 -20 3z"/>
<path d="M3520 152 c0 -1 11 -14 23 -28 l24 -25 -5 30 c-3 22 -9 29 -23 28
-10 -1 -19 -3 -19 -5z"/>
<path d="M3920 150 c0 -5 5 -10 11 -10 5 0 7 5 4 10 -3 6 -8 10 -11 10 -2 0
-4 -4 -4 -10z"/>
<path d="M3958 130 c-3 -17 0 -30 6 -30 6 0 12 14 13 30 3 39 -13 39 -19 0z"/>
<path d="M4235 150 c-7 -11 12 -50 24 -50 4 0 6 13 3 30 -4 30 -16 39 -27 20z"/>
<path d="M4275 150 c3 -5 8 -10 11 -10 2 0 4 5 4 10 0 6 -5 10 -11 10 -5 0 -7
-4 -4 -10z"/>
<path d="M4385 150 c3 -5 8 -10 11 -10 2 0 4 5 4 10 0 6 -5 10 -11 10 -5 0 -7
-4 -4 -10z"/>
<path d="M3708 133 c7 -3 16 -2 19 1 4 3 -2 6 -13 5 -11 0 -14 -3 -6 -6z"/>
<path d="M1962 118 c2 -6 10 -14 16 -16 7 -2 10 2 6 12 -7 18 -28 22 -22 4z"/>
<path d="M4382 118 c2 -6 10 -14 16 -16 7 -2 10 2 6 12 -7 18 -28 22 -22 4z"/>
<path d="M2410 110 c0 -6 7 -10 15 -10 8 0 15 2 15 4 0 2 -7 6 -15 10 -8 3
-15 1 -15 -4z"/>
<path d="M2865 110 c3 -5 8 -10 11 -10 2 0 4 5 4 10 0 6 -5 10 -11 10 -5 0 -7
-4 -4 -10z"/>
</g>
</svg>
